<svg width="40" height="40" viewBox="0 0 40 40" fill="none" xmlns="http://www.w3.org/2000/svg">
<path d="M20.3218 39.9946C17.1903 39.9946 14.0588 39.996 10.9273 39.9946C7.10363 39.9933 4.05349 37.6073 3.15725 33.913C2.86784 32.7234 3.04388 31.5284 3.16392 30.3401C3.35463 28.4449 3.57603 26.5511 3.77875 24.6572C4.04282 22.1899 4.30555 19.7239 4.56162 17.2553C4.75367 15.4041 4.91772 13.5489 5.12444 11.6991C5.2458 10.6215 5.27915 9.53454 5.51254 8.47026C5.91932 6.6191 7.45839 5.3521 9.34956 5.33609C10.6592 5.32542 11.9703 5.31209 13.2799 5.34676C13.6747 5.35743 13.8134 5.20672 13.9174 4.8733C14.8524 1.87384 17.3037 0.00400755 20.2885 6.48205e-06C23.3266 -0.00399458 25.7726 1.8445 26.7209 4.87864C26.8275 5.21873 26.9756 5.3561 27.3637 5.34676C28.6507 5.31475 29.939 5.32809 31.2274 5.33609C33.3439 5.3481 35.0297 6.87917 35.2458 8.99307C35.6552 13.0048 36.046 17.0192 36.4621 21.0309C36.8395 24.6666 37.3063 28.2955 37.6131 31.9365C37.8892 35.2134 35.7032 38.6476 32.0103 39.7092C31.2847 39.9173 30.5392 40.0013 29.7803 40C26.6288 39.9893 23.476 39.9946 20.3218 39.9946ZM20.2671 37.3286C23.3773 37.3286 26.4861 37.3246 29.5963 37.3326C30.0884 37.3339 30.5699 37.2873 31.05 37.1952C33.3546 36.7565 35.2445 34.2078 34.9564 31.9672C34.7643 30.4734 34.6069 28.9744 34.4549 27.4753C34.2108 25.072 33.9961 22.666 33.7467 20.2641C33.3733 16.6484 32.9772 13.0368 32.5984 9.42118C32.4984 8.46359 32.0183 8.00214 31.0393 8.0008C23.8881 7.99813 16.7355 7.9968 9.58429 8.0008C8.6267 8.0008 8.14391 8.48893 8.04655 9.44919C7.81049 11.7858 7.55842 14.1224 7.31169 16.4577C7.03161 19.1024 6.74754 21.7458 6.46746 24.3892C6.24874 26.4604 6.00201 28.5289 5.83129 30.6041C5.76861 31.3724 5.56589 32.1419 5.70193 32.9221C6.17538 35.6268 8.18925 37.3206 10.9407 37.3246C14.0481 37.3299 17.1583 37.3286 20.2671 37.3286ZM16.6195 5.30008C19.1095 5.30008 21.5608 5.30008 24.0201 5.30008C23.6227 3.82769 22.0156 2.66872 20.3205 2.66872C18.5827 2.66738 16.9916 3.87837 16.6195 5.30008Z" fill="#060606"/>
<path d="M20.2888 21.331C16.7292 21.3257 13.6951 18.3849 13.6564 14.9026C13.6457 13.9504 14.1579 13.3395 14.9754 13.3315C15.7623 13.3235 16.2731 13.8837 16.3265 14.8106C16.4505 17.0085 18.1976 18.6796 20.3529 18.6636C22.4814 18.6476 24.1899 16.9885 24.3166 14.8146C24.3726 13.853 24.9127 13.2862 25.7276 13.3329C26.5092 13.3769 26.9973 13.985 26.9866 14.9C26.944 18.4116 23.8978 21.3377 20.2888 21.331Z" fill="#090909"/>
</svg>
