<svg width="40" height="40" viewBox="0 0 40 40" fill="none" xmlns="http://www.w3.org/2000/svg">
<g clip-path="url(#clip0_397_356)">
<path d="M16.3727 0.0181435C24.0337 0.026143 30.6373 5.19253 32.3919 12.5308C33.6185 17.6599 32.5972 22.3556 29.3907 26.546C29.0361 27.01 29.1027 27.2273 29.48 27.6006C32.8038 30.8951 36.1117 34.2083 39.4182 37.5214C40.3168 38.4227 40.1115 39.6347 39.0182 39.9466C38.3502 40.1373 37.8849 39.7893 37.4396 39.3427C34.3398 36.2308 31.2306 33.1283 28.1254 30.0232C27.1228 29.0206 27.1335 29.0326 25.9896 29.8325C22.7577 32.0937 19.1886 33.079 15.2301 32.8257C8.58383 32.4004 2.54283 27.646 0.621599 20.9103C-1.8996 12.0695 3.48944 2.734 12.429 0.538115C13.0076 0.39679 13.5862 0.223466 14.1742 0.167469C14.9448 0.095473 15.7154 -0.0511861 16.3727 0.0181435ZM2.68015 16.4746C2.72015 23.9435 8.64516 30.2272 16.4714 30.2152C24.2017 30.2032 30.228 24.0475 30.2107 16.4333C30.1933 8.57235 23.8577 2.68867 16.4287 2.686C8.85182 2.682 2.67482 8.88166 2.68015 16.4746Z" fill="#0B0B0B"/>
<path d="M16.6708 4.44594C20.7292 4.6366 23.9651 6.34984 26.3383 9.66566C26.7076 10.1816 26.7982 10.7109 26.4516 11.2696C26.1529 11.7509 25.7063 11.9495 25.1503 11.8815C24.6757 11.8242 24.373 11.5202 24.1037 11.1429C22.6411 9.08836 20.6759 7.78843 18.196 7.30179C17.6334 7.19113 17.0534 7.16446 16.4815 7.11113C15.6375 7.0338 15.0469 6.4485 15.0989 5.72587C15.1549 4.94725 15.8015 4.42061 16.6708 4.44594Z" fill="#0B0B0B"/>
</g>
<defs>
<clipPath id="clip0_397_356">
<rect width="40" height="40" fill="white"/>
</clipPath>
</defs>
</svg>
