<svg width="40" height="40" viewBox="0 0 40 40" fill="none" xmlns="http://www.w3.org/2000/svg">
<g clip-path="url(#clip0_101_2)">
<path d="M3.88266 6.48501C5.9948 4.4556 8.57019 3.54358 11.5115 3.50703C14.411 3.55841 16.9851 4.47237 19.2263 6.30294L19.227 6.30352C19.4099 6.45237 19.6565 6.627 19.97 6.64113C20.2969 6.65586 20.5617 6.49312 20.7743 6.32166L20.7744 6.32153C23.6326 4.01368 26.8876 3.0755 30.4868 3.67806L30.4869 3.67807C35.3549 4.49253 38.4734 8.05595 39.2564 12.2878C40.1007 16.8533 38.7334 20.6764 35.408 23.9298C33.0265 26.2594 30.6776 28.6257 28.3315 30.9891C27.2603 32.0682 26.1897 33.1467 25.1169 34.2209L25.4707 34.5742L25.1169 34.2209C23.5267 35.8131 21.751 36.5777 20.0101 36.5793C18.2694 36.581 16.4969 35.8197 14.9126 34.2335L14.5588 34.5868L14.9126 34.2335C14.0643 33.3842 13.2162 32.5344 12.368 31.6845C9.60955 28.9205 6.84998 26.1554 4.07918 23.4028L3.72945 23.7548L4.07917 23.4028C-0.61677 18.7379 -0.701699 10.8915 3.88266 6.48501ZM3.88266 6.48501L3.53624 6.12447L3.88266 6.48501ZM2.30048 15.0797L2.30065 15.0797C2.30796 10.1112 5.05939 6.44936 9.5596 5.54872L9.55974 5.54869C13.1168 4.83785 16.3389 5.87754 18.8881 8.45905L2.30048 15.0797ZM2.30048 15.0797L2.3008 15.0926M2.30048 15.0797L2.3008 15.0926M2.3008 15.0926C2.36138 17.5675 3.35368 20.0954 5.41301 22.1577C7.9825 24.7312 10.5564 27.3006 13.1301 29.8698C14.186 30.9239 15.2418 31.9779 16.2974 33.0322L16.2974 33.0322M2.3008 15.0926L16.2974 33.0322M16.2974 33.0322C17.4206 34.1539 18.6978 34.7537 20.0173 34.7503C21.3364 34.7469 22.615 34.1409 23.7422 33.0138L16.2974 33.0322ZM33.6264 6.80822L33.6265 6.80826C36.7814 8.91056 37.9363 12.0339 37.656 15.6459C37.4444 18.3721 36.1969 20.6107 34.2798 22.4944C31.81 24.9222 29.3665 27.3741 26.9209 29.8282C25.8625 30.8903 24.8037 31.9527 23.7423 33.0138L33.6264 6.80822ZM33.6264 6.80822C29.8732 4.30807 24.4127 5.05953 21.1069 8.47957M33.6264 6.80822L21.1069 8.47957M21.1069 8.47957C20.6783 8.92265 20.3196 9.07584 20.0197 9.07595M21.1069 8.47957L20.0197 9.07595M20.0197 9.07595C19.7183 9.07605 19.3452 8.9218 18.8882 8.45909L20.0197 9.07595Z" fill="#0B0C0C" stroke="black"/>
<path d="M35.4124 14.667C35.4236 15.6632 34.8842 16.3119 34.0337 16.3246C33.2085 16.3372 32.6634 15.7389 32.6102 14.7777C32.5065 12.9114 31.4515 11.7079 29.8738 10.8742C29.6286 10.7453 29.3526 10.6725 29.1144 10.5351C28.5007 10.1835 28.2611 9.43386 28.533 8.78795C28.8118 8.12662 29.5067 7.74271 30.1821 7.9781C32.6859 8.8524 35.3214 11.1096 35.4124 14.667Z" fill="#0A0A0A"/>
<path d="M19 13C19 17.3333 19 21.6667 19 26C19 30.9991 24 21.6938 24 19.4444C24 9.47094 18.8284 21.8889 21.5 21.8889C22.3022 21.8889 22.3657 17.3188 21.4444 17.0556C18.537 16.2249 18 17.5211 18 20" stroke="black" stroke-width="3" stroke-linecap="round"/>
<path d="M19.6307 27.9507C19.6307 24.8369 20.387 21.848 20.387 18.7917C20.387 17.4333 20.387 16.0749 20.387 14.7164C20.387 13.2019 20.5024 13.0359 21.6054 12.1536C23.1227 10.9397 25.3591 9.98243 26.8991 8.75048C27.543 8.23535 26.9781 9.06807 26.4369 9.33867C25.6643 9.72499 25.0616 10.1789 24.1682 10.1789C23.1889 10.1789 21.091 11.3465 20.2189 11.9015C17.8088 13.4352 20.0088 10.9218 20.0088 9.98988C20.0088 8.27465 21.735 9.47204 22.8448 8.85552C24.1691 8.11975 24.7241 7.53209 26.2479 7.53209C27.5083 7.53209 28.7687 7.53209 30.0291 7.53209C31.0236 7.53209 27.7106 7.73613 27.5923 7.32202C27.1064 5.62142 27.7115 6.08666 28.8737 6.41872C29.4181 6.57427 31.3772 6.90121 31.7306 7.34302C32.1848 7.91068 33.9462 8.61922 33.9994 9.04458C34.0565 9.50156 34.7427 9.50104 35.0497 9.88485C35.3887 10.3086 35.1069 11.5602 35.1337 12.0696C35.1981 13.2924 35.5119 14.5327 35.5119 15.8508C35.5119 18.6852 33.8276 19.3864 31.8147 20.8504C30.4186 21.8657 29.5074 21.3362 28.9998 19.9261C28.5505 18.6782 26.1285 17.5527 26.0588 16.2289C25.9863 14.8518 26.0588 13.4493 26.0588 12.0696C26.0588 11.8131 26.0552 10.3434 26.731 11.0192C27.0947 11.3829 26.6996 12.5161 26.8361 12.9939C27.125 14.0052 28.1852 15.7505 28.8737 16.439C28.8979 16.4632 30.5963 19.6749 30.5963 17.9305C30.5963 16.1443 29.4365 14.6967 29.0628 13.0149C28.9282 12.4091 28.1284 12.0343 27.9704 11.4814C27.7827 10.8244 28.2197 11.8677 28.7057 12.1536C29.7851 12.7885 30.2071 14.3742 31.3525 15.0105C32.5258 15.6623 32.3003 18.0649 32.1088 15.7668C32.0649 15.2404 30.5157 13.2214 30.2182 13.2039C28.7071 13.115 28.8213 11.7847 28.1175 10.5781C27.5155 9.54615 28.8321 11.3389 29.2728 11.6914C30.0509 12.3139 30.9744 13.1422 30.9744 14.1492C30.9744 15.4715 29.1739 14.7164 27.9494 14.7164C26.4299 14.7164 24.9104 14.7164 23.3909 14.7164C21.5287 14.7164 20.033 14.7164 22.8238 14.7164C24.9104 14.7164 26.9971 14.7164 29.0838 14.7164C30.2089 14.7164 32.6299 14.8232 33.2431 13.7501C33.5594 13.1966 33.904 9.4157 33.9994 10.1789C34.0455 10.5475 35.2165 12.2675 35.4278 12.5317C35.956 13.1919 36.2681 14.6273 36.2681 15.4727C36.2681 17.9979 36.2906 20.7636 33.2431 21.1445C32.7405 21.2073 31.498 23.3323 31.2685 23.7914C30.6644 24.9995 30.0133 25.2047 29.1678 26.1441C28.4362 26.9571 27.8329 27.521 27.1091 28.2448C26.5305 28.8234 26.0089 30.3147 25.0925 30.5766C23.6711 30.9827 22.1645 34.1133 19.8618 33.6016C17.8273 33.1494 21.7525 26.2491 22.4876 25.5139C24.0889 23.9126 25.3026 19.5113 25.3026 17.1742C25.3026 14.6173 25.6807 17.9699 25.6807 18.8968C25.6807 21.1686 25.2526 23.0859 24.4623 25.2198C23.9797 26.5227 22.9992 27.8099 22.3616 29.0851C21.8471 30.1141 20.3923 33.165 20.555 32.026C20.6104 31.6384 23.0265 29.4932 23.4119 29.0851C24.5928 27.8348 26.0588 26.0914 26.0588 24.3586C26.0588 23.4523 26.0588 20.9188 26.0588 23.2242C26.0588 24.4577 26.815 23.2497 26.815 22.51C26.815 21.3424 26.2483 20.5383 26.0798 19.443C26.016 19.0283 25.3026 16.9389 25.3026 18.3086C25.3026 19.213 26.2403 19.4087 26.4159 20.1992C26.5354 20.7368 27.0402 20.8929 27.1722 21.3546C27.3788 22.0778 27.1645 22.6869 27.4873 23.4132C28.5943 25.9041 25.2139 25.5981 23.7901 24.9257C22.7772 24.4475 20.1935 23.9926 19.7147 23.0351C19.3989 22.4035 13.6435 17.1348 14.0429 16.6911C14.8462 15.7986 21.3594 18.5414 22.5297 18.8758C25.0676 19.6009 28.3812 20.992 30.9744 21.1445C31.9384 21.2012 33.7253 22.657 31.7306 22.657C30.6079 22.657 28.7183 22.2631 27.9494 23.2242C27.5527 23.72 26.0092 25.0738 25.4916 25.3039C24.3114 25.8284 23.2681 28.0457 22.0885 28.3078C20.7589 28.6033 20.8004 30.0955 18.8745 29.8203C17.591 29.637 16.3096 26.5671 15.6394 25.5139C14.7142 24.0601 14.2851 22.4134 13.3707 20.9765C13.2103 20.7244 12.2853 19.489 13.0346 19.2749C14.0474 18.9855 14.2472 20.2911 14.7151 20.9344C15.8209 22.4549 16.6451 23.8623 17.551 25.4929C17.7345 25.8231 17.7975 27.3613 17.1939 26.5853C15.9351 24.9668 14.9199 22.0106 14.0429 20.0942C13.307 18.486 12.5819 16.8189 11.7742 15.4727C11.1399 14.4156 11.6445 17.938 11.6901 19.1699C11.7582 21.0087 12.4358 23.2188 13.1186 24.9257C13.63 26.2043 13.7501 27.9995 14.7151 29.0851C15.4992 29.9672 15.7153 30.7928 16.5217 31.4379C17.7989 32.4596 19.6037 31.7313 19.6307 30.1354C19.7335 24.0719 16.7257 19.713 12.2363 16.0398C10.954 14.9907 9.91488 13.2578 8.4971 12.4477C7.32473 11.7778 9.71382 11.8201 9.96757 11.8805C11.147 12.1613 12.0732 12.8812 13.2026 13.2039C14.1214 13.4664 14.6993 14.4725 15.7024 14.6954C16.6174 14.8987 16.8402 15.6718 17.551 15.8298C17.9021 15.9078 18.6937 16.607 18.6434 16.607C17.0113 16.607 15.5128 14.7189 14.421 13.6661C13.3538 12.637 12.1601 11.4075 10.9339 10.6411C10.617 10.443 9.46909 9.69295 9.4214 9.4227C9.33897 8.95564 9.26585 8.14847 10.0936 8.75048C11.4102 9.708 14.5004 9.89416 15.3873 11.3133C15.7762 11.9355 16.5023 11.4334 16.8998 12.0696C17.2115 12.5682 17.7496 13.0716 18.2863 13.2249C18.3633 13.247 19.1066 14.4819 18.4963 13.414C18.1753 12.8523 16.5268 11.9102 15.8705 11.6914C15.0406 11.4148 14.7851 10.8846 14.1479 10.389C13.6497 10.0015 12.8889 10.1649 12.4464 9.61176C12.2073 9.31288 9.65537 8.03242 10.0096 7.93122C11.2245 7.58408 12.9966 8.36452 14.1269 8.68746C15.2546 9.00966 15.8267 10.394 16.7738 10.9352C16.9604 11.0419 18.0151 11.7363 18.0972 11.8595C18.4842 12.44 17.3163 10.6845 16.7948 10.221C15.5902 9.15019 15.0987 8.28833 13.3917 8.28833C12.0683 8.28833 10.7448 8.28833 9.4214 8.28833C8.51703 8.28833 8.58918 7.57832 9.4214 7.53209C10.2844 7.48414 10.9698 7.57868 11.7742 7.82618C12.5642 8.06926 13.3099 8.13135 14.0429 8.58243C14.3069 8.74488 15.5929 9.3942 15.8495 9.4227C17.5339 9.60986 20.5698 13.975 17.8241 11.2293C17.1522 10.5574 16.6456 9.45456 15.7655 8.75048C14.9932 8.13264 13.2104 8.7575 12.3624 7.99424C11.6991 7.39729 9.34353 7.15396 11.312 7.15396C11.9422 7.15396 12.5724 7.15396 13.2026 7.15396C14.0692 7.15396 14.1771 7.91021 14.9042 7.91021C15.2511 7.91021 19.5887 11.5945 19.5887 11.4814C19.5887 10.8357 16.3861 8.66645 16.0385 8.66645C15.1182 8.66645 12.6359 8.91184 14.5681 10.2C16.758 11.6599 17.2611 14.9401 19.2316 16.418C20.0184 17.0081 19.9211 18.2286 20.387 19.0438C20.4903 19.2246 20.9752 19.2539 20.9752 19.2539C20.9752 19.2539 20.3479 19.0917 20.2189 18.8338C19.9506 18.2971 20.1144 17.696 19.7568 17.1952C19.3747 16.6604 18.7258 16.2717 18.4963 15.6407C18.2406 14.9374 17.5039 14.0373 17.383 13.372C16.9246 10.8508 19.5544 11.6914 21.3533 11.6914C23.3979 11.6914 25.4426 11.6914 27.4873 11.6914C28.121 11.6914 31.2008 11.274 31.6466 11.7755C31.9951 12.1675 29.1726 13.797 28.7057 14.0442C27.1665 14.859 26.1227 16.2277 25.0925 17.5523C22.8044 20.4942 21.9351 24.2929 21.1642 27.7617C21.0579 28.2402 21.1432 29.7223 21.1432 29.2321C21.1432 26.818 21.5754 24.3338 22.2776 22.0268C22.7486 20.4793 22.8745 16.3086 24.5463 15.4727" stroke="black" stroke-width="3" stroke-linecap="round"/>
<path d="M32.1088 15.4727C32.1088 17.1112 32.1088 18.7497 32.1088 20.3883C32.1088 21.6554 32.4869 17.4068 32.4869 16.607C32.4869 15.4273 32.4508 16.0048 31.0584 15.5987C25.7744 14.0575 20.5372 12.1066 15.2613 10.6411C13.9901 10.288 12.2871 11.0148 11.1229 10.368C10.3099 9.91631 9.81562 10.3887 9.21132 9.61176C8.92431 9.24275 8.12128 8.80817 7.69883 8.68746C7.3978 8.60146 6.16678 8.54766 6.96359 7.91021C7.38366 7.57415 7.06641 6.85545 6.58546 7.72115C5.68521 9.3416 3.74954 10.9911 3.74954 13.2039C3.74954 15.8416 4.41926 17.2998 6.10231 19.1699C6.67124 19.802 7.19868 20.8239 7.82487 21.6067C8.40282 22.3291 9.19148 23.4594 9.44239 24.3375C9.66177 25.1054 11.2471 26.3107 11.8792 26.8164C12.7309 27.4977 12.5768 29.0475 13.2866 29.7573C14.209 30.6797 14.7875 31.7087 13.6648 29.4632C12.9528 28.0393 12.0833 26.8217 11.312 25.4719C10.4799 24.0157 10.0397 22.4833 9.37937 20.9975C9.07522 20.3131 8.11781 20.1194 7.9299 19.0858C7.76978 18.2052 6.87903 17.9057 6.79553 17.3213C6.59855 15.9424 5.64016 15.1834 5.64016 13.7711C5.64016 13.4003 6.7166 10.2746 7.44674 11.1873C7.69882 11.5024 7.15265 13.7705 7.15265 14.3383C7.15265 15.2096 6.91511 16.2925 7.53077 16.9852C8.72749 18.3315 9.68782 18.9557 10.4717 16.6911C11.1048 14.8621 10.1482 14.7164 8.66514 14.7164C6.39073 14.7164 8.66828 18.3921 9.02226 17.1532C9.17664 16.6129 9.42138 16.0411 9.42138 16.9852C9.42138 18.278 10.2165 19.1589 10.5558 20.3463C10.8615 21.4164 11.6101 23.1935 12.6564 23.7914C13.937 24.5231 14.2309 25.9542 15.2613 26.8374C15.3445 26.9087 16.1822 28.5814 16.2066 28.728C16.369 29.7024 16.9028 29.8782 16.9838 30.8917C16.986 30.919 18.4464 33.3711 18.5804 33.5385C18.7867 33.7965 18.8673 34.8769 19.2526 34.6729C19.9228 34.3181 20.0689 33.1484 20.2399 32.5302C21.0831 29.4818 22.2749 26.5524 23.1598 23.5183C23.8041 21.3093 23.8283 18.5178 25.8487 17.3633C27.4902 16.4253 28.9063 15.5614 30.5963 14.7164" stroke="black" stroke-width="3" stroke-linecap="round"/>
<path d="M4.88391 12.0696C4.88391 12.9094 4.12767 12.9324 4.12767 13.7711C4.12767 14.4643 4.12767 15.1576 4.12767 15.8508C4.12767 17.2291 4.04675 18.6346 4.12767 20.0101C4.19399 21.1377 6.10043 21.9392 6.48043 22.657C7.23642 24.085 9.0838 24.2506 9.79951 25.682" stroke="black" stroke-width="3" stroke-linecap="round"/>
</g>
<defs>
<clipPath id="clip0_101_2">
<rect width="40" height="40" fill="white"/>
</clipPath>
</defs>
</svg>
