<svg width="40" height="40" viewBox="0 0 40 40" fill="none" xmlns="http://www.w3.org/2000/svg">
<path d="M11.5128 3.00698C14.5238 3.05883 17.2097 4.01019 19.5426 5.9157C19.8887 6.19733 20.0904 6.23096 20.4603 5.93252C23.4223 3.54081 26.82 2.55723 30.5694 3.18493C35.6611 4.03681 38.9299 7.77499 39.7481 12.1969C40.6252 16.9397 39.1919 20.9273 35.7577 24.2872C32.2914 27.6779 28.8979 31.1428 25.4707 34.5742C22.1375 37.9116 17.8809 37.913 14.5588 34.5868C10.951 30.9747 7.34868 27.3556 3.72679 23.7575C-1.1547 18.9083 -1.26399 10.7384 3.53624 6.12447C5.75421 3.99337 8.45977 3.04341 11.5128 3.00698ZM2.80065 15.0804C2.8581 17.4273 3.79825 19.833 5.76682 21.8044C9.39011 25.4333 13.0218 29.0538 16.6507 32.6784C18.7552 34.7801 21.2744 34.7745 23.3887 32.6602C26.8999 29.1504 30.3887 25.6182 33.9293 22.1378C35.7788 20.3206 36.9571 18.1895 37.1575 15.6072C37.4265 12.1409 36.3266 9.20833 33.3492 7.22435C29.8156 4.87047 24.6203 5.56402 21.4663 8.82723C20.5066 9.81922 19.5468 9.83743 18.5324 8.81041C16.0973 6.34445 13.0442 5.36226 9.65772 6.039C5.42214 6.88668 2.80766 10.3166 2.80065 15.0804Z" fill="#0B0C0C"/>
<path d="M35.4124 14.667C35.4236 15.6632 34.8842 16.3119 34.0337 16.3246C33.2085 16.3372 32.6634 15.7389 32.6102 14.7777C32.5065 12.9114 31.4515 11.7079 29.8738 10.8742C29.6286 10.7453 29.3526 10.6725 29.1144 10.5351C28.5007 10.1835 28.2611 9.43386 28.533 8.78795C28.8118 8.12662 29.5067 7.74271 30.1821 7.9781C32.6859 8.8524 35.3214 11.1096 35.4124 14.667Z" fill="#0A0A0A"/>
</svg>
